# xmcd
#
# Track frame offsets:
#	151
#	14639
#	29095
#	48550
#	64978
#	75863
#	87142
#	101247
#	114442
#	123659
#
# Disc length: 1720 seconds
#
# Revision: 0
# Processed by: cddbd v1.5.1PL0 Copyright (c) Steve Scherf et al.
# Submitted via: dBpowerAMP V4.0
#
DISCID=8506b60a
DTITLE=Jerry Douglas - Fluxology
DYEAR=1979
DGENRE=Country
TTITLE0=Fluxology
TTITLE1=Bill Cheatham
TTITLE2=Say a little prayer for you
TTITLE3=C-Buiscuit
TTITLE4=Randy lynn Rag
TTITLE5=Wheel Hoss
TTITLE6=Red Bug Rag
TTITLE7=Alabam'
TTITLE8=Dixie Hoedown
TTITLE9=Blues for Vicky
EXTD=rounder 0093
EXTT0=
EXTT1=
EXTT2=
EXTT3=
EXTT4=
EXTT5=
EXTT6=
EXTT7=
EXTT8=
EXTT9=
PLAYORDER=
